<svg xmlns="http://www.w3.org/2000/svg" fill="none" viewBox="0 0 72 17">
  <path d="M12.418 1.61c-1.926.024-5.944.104-7.193.424-.917.246-1.594.984-1.84 1.846-.425 1.662-.419 5.114-.419 5.114s-.006 3.452.419 5.114c.24.923.978 1.6 1.84 1.846 1.655.43 8.246.418 8.246.418s6.584.006 8.246-.418c.923-.246 1.594-.985 1.84-1.846.425-1.662.418-5.114.418-5.114s.068-3.452-.418-5.114c-.246-.923-.979-1.6-1.84-1.846-1.65-.43-8.24-.425-8.24-.425s-.412-.006-1.052 0h-.007zm44.437.553V15.26h1.711l.19-.844h.056c.185.308.437.542.745.727.308.184.664.246 1.034.246.677 0 1.224-.302 1.532-.979.308-.677.498-1.661.498-3.015V9.917c0-.985-.067-1.785-.19-2.4-.123-.548-.308-.979-.616-1.286-.307-.246-.676-.363-1.169-.363a2.05 2.05 0 00-1.034.301c-.301.185-.621.493-.744.862V2.169h-2.019l.006-.006zm-30.763.48l2.4 8.554.111 4.13h2.037v-4.13l2.382-8.554h-2.074l-.862 3.883c-.246 1.163-.437 1.963-.498 2.456h-.056c-.123-.677-.314-1.477-.498-2.456l-.843-3.883h-2.099zm18.21 0v1.668h2.092v11.015h2.018V4.311h2.093s0-1.668-.056-1.668h-6.148zm-32.917 3.15l5.476 3.189-5.476 3.132V5.788v.006zM66.4 5.85c-1.046 0-1.779.363-2.21.979-.424.609-.608 1.6-.608 3.015v1.594c0 1.354.184 2.4.609 3.015.43.677 1.108.979 2.154.979.861 0 1.464-.185 1.957-.616.43-.43.67-1.04.67-1.901v-.308l-1.784-.13c0 .616-.05.985-.173 1.232-.061.246-.307.381-.615.381a.72.72 0 01-.499-.19c-.123-.185-.184-.364-.246-.671-.061-.308-.055-.745-.055-1.36v-.48l3.514-.056V9.72c0-.985-.062-1.71-.246-2.265-.123-.547-.437-.978-.806-1.224-.431-.246-.911-.363-1.65-.363l-.012-.019zm-31.07.056c-.672 0-1.238.11-1.669.418-.43.246-.738.69-.916 1.305-.185.615-.308 1.397-.308 2.381v1.36c0 .923.062 1.711.246 2.326.123.554.43.997.862 1.305.424.308 1.052.418 1.729.48.732 0 1.28-.172 1.71-.418.425-.247.671-.671.917-1.287.24-.615.302-1.415.302-2.4v-1.36c0-.984-.123-1.766-.302-2.381-.184-.548-.492-.997-.916-1.305-.431-.307-.973-.418-1.65-.418l-.006-.006zm7.495.055v7.323c-.062.185-.179.296-.364.418a.718.718 0 01-.498.191c-.184 0-.357-.061-.418-.246-.062-.185-.111-.43-.111-.861V6.022h-2.092v6.898c0 .861.11 1.47.418 1.902.302.43.745.615 1.36.615.861 0 1.526-.425 1.957-1.286h.055l.191 1.095h1.594V6.022s-2.092 0-2.092-.056V5.96zm10.652 0v7.323c-.062.185-.178.296-.363.418a.718.718 0 01-.499.191c-.184 0-.357-.061-.418-.246a2.514 2.514 0 01-.13-.861V6.022h-2.092v6.898c0 .861.13 1.47.437 1.902.308.43.727.615 1.342.615.855 0 1.544-.425 1.975-1.286h.056l.172 1.095h1.612V6.022s-2.092 0-2.092-.056V5.96zm12.861 1.286c.247 0 .357.068.48.19.124.186.185.364.247.672.061.307.055.744.055 1.36v.67h-1.538v-.67c0-.616 0-1.053.055-1.36 0-.246.068-.493.19-.616.124-.184.314-.246.5-.246h.011zm-31.07.074c.307 0 .492.11.615.418.117.308.172.8.172 1.477v2.88c0 .677-.049 1.17-.172 1.477-.123.308-.308.419-.615.419-.308 0-.486-.111-.61-.419-.123-.307-.19-.8-.19-1.477v-2.88c0-.677.067-1.169.19-1.477.123-.307.302-.418.61-.418zm24.418.055c.185 0 .376.062.499.247.123.184.166.412.227.843.062.369.074.929.074 1.667l.056 1.17c0 .677 0 1.224-.056 1.593-.061.37-.117.665-.301.788-.123.185-.308.246-.554.246-.185 0-.314-.049-.499-.11-.123-.062-.24-.179-.363-.364v-5.23c.062-.247.179-.431.363-.616a.752.752 0 01.554-.246v.012z" fill="#fff" stroke="#000" stroke-opacity=".15" stroke-width="1.231"/>
  <path d="M12.418 1.61c-1.926.024-5.944.104-7.193.424-.917.246-1.594.984-1.84 1.846-.425 1.662-.419 5.114-.419 5.114s-.006 3.452.419 5.114c.24.923.978 1.6 1.84 1.846 1.655.43 8.246.418 8.246.418s6.584.006 8.246-.418c.923-.246 1.594-.985 1.84-1.846.425-1.662.418-5.114.418-5.114s.068-3.452-.418-5.114c-.246-.923-.979-1.6-1.84-1.846-1.65-.43-8.24-.425-8.24-.425s-.412-.006-1.052 0h-.007zm44.437.553V15.26h1.711l.19-.844h.056c.185.308.437.542.745.727.308.184.664.246 1.034.246.677 0 1.224-.302 1.532-.979.308-.677.498-1.661.498-3.015V9.917c0-.985-.067-1.785-.19-2.4-.123-.548-.308-.979-.616-1.286-.307-.246-.676-.363-1.169-.363a2.05 2.05 0 00-1.034.301c-.301.185-.621.493-.744.862V2.169h-2.019l.006-.006zm-30.763.48l2.4 8.554.111 4.13h2.037v-4.13l2.382-8.554h-2.074l-.862 3.883c-.246 1.163-.437 1.963-.498 2.456h-.056c-.123-.677-.314-1.477-.498-2.456l-.843-3.883h-2.099zm18.21 0v1.668h2.092v11.015h2.018V4.311h2.093s0-1.668-.056-1.668h-6.148zm-32.917 3.15l5.476 3.189-5.476 3.132V5.788v.006zM66.4 5.85c-1.046 0-1.779.363-2.21.979-.424.609-.608 1.6-.608 3.015v1.594c0 1.354.184 2.4.609 3.015.43.677 1.108.979 2.154.979.861 0 1.464-.185 1.957-.616.43-.43.67-1.04.67-1.901v-.308l-1.784-.13c0 .616-.05.985-.173 1.232-.061.246-.307.381-.615.381a.72.72 0 01-.499-.19c-.123-.185-.184-.364-.246-.671-.061-.308-.055-.745-.055-1.36v-.48l3.514-.056V9.72c0-.985-.062-1.71-.246-2.265-.123-.547-.437-.978-.806-1.224-.431-.246-.911-.363-1.65-.363l-.012-.019zm-31.07.056c-.672 0-1.238.11-1.669.418-.43.246-.738.69-.916 1.305-.185.615-.308 1.397-.308 2.381v1.36c0 .923.062 1.711.246 2.326.123.554.43.997.862 1.305.424.308 1.052.418 1.729.48.732 0 1.28-.172 1.71-.418.425-.247.671-.671.917-1.287.24-.615.302-1.415.302-2.4v-1.36c0-.984-.123-1.766-.302-2.381-.184-.548-.492-.997-.916-1.305-.431-.307-.973-.418-1.65-.418l-.006-.006zm7.495.055v7.323c-.062.185-.179.296-.364.418a.718.718 0 01-.498.191c-.184 0-.357-.061-.418-.246-.062-.185-.111-.43-.111-.861V6.022h-2.092v6.898c0 .861.11 1.47.418 1.902.302.43.745.615 1.36.615.861 0 1.526-.425 1.957-1.286h.055l.191 1.095h1.594V6.022s-2.092 0-2.092-.056V5.96zm10.652 0v7.323c-.062.185-.178.296-.363.418a.718.718 0 01-.499.191c-.184 0-.357-.061-.418-.246a2.514 2.514 0 01-.13-.861V6.022h-2.092v6.898c0 .861.13 1.47.437 1.902.308.43.727.615 1.342.615.855 0 1.544-.425 1.975-1.286h.056l.172 1.095h1.612V6.022s-2.092 0-2.092-.056V5.96zm12.861 1.286c.247 0 .357.068.48.19.124.186.185.364.247.672.061.307.055.744.055 1.36v.67h-1.538v-.67c0-.616 0-1.053.055-1.36 0-.246.068-.493.19-.616.124-.184.314-.246.5-.246h.011zm-31.07.074c.307 0 .492.11.615.418.117.308.172.8.172 1.477v2.88c0 .677-.049 1.17-.172 1.477-.123.308-.308.419-.615.419-.308 0-.486-.111-.61-.419-.123-.307-.19-.8-.19-1.477v-2.88c0-.677.067-1.169.19-1.477.123-.307.302-.418.61-.418zm24.418.055c.185 0 .376.062.499.247.123.184.166.412.227.843.062.369.074.929.074 1.667l.056 1.17c0 .677 0 1.224-.056 1.593-.061.37-.117.665-.301.788-.123.185-.308.246-.554.246-.185 0-.314-.049-.499-.11-.123-.062-.24-.179-.363-.364v-5.23c.062-.247.179-.431.363-.616a.752.752 0 01.554-.246v.012z" fill="#fff"/>
</svg>
