<svg xmlns="http://www.w3.org/2000/svg" fill="none" viewBox="0 0 512 512">
  <g clip-path="url(#jp1lMr8VI98aa)">
    <path d="M243.607 314.921c34.272 0 62.056-27.784 62.056-62.056 0-34.273-27.784-62.056-62.056-62.056-34.273 0-62.056 27.783-62.056 62.056 0 34.272 27.783 62.056 62.056 62.056z" fill="#FF2E2E"/>
    <path d="M243.608 280.856c-28.363 0-52.264-19.036-59.668-45.024a62.066 62.066 0 00-2.385 17.03c0 34.272 27.782 62.053 62.053 62.053s62.053-27.783 62.053-62.053c0-5.908-.843-11.616-2.385-17.03-7.404 25.988-31.305 45.024-59.668 45.024z" fill="#E60020"/>
    <path d="M396.941 252.842c17.864-21.215 32.335-42.428 42.451-62.599a7.836 7.836 0 10-14.01-7.026c-9.304 18.551-22.52 38.078-38.843 57.691-11.995-13.298-25.255-26.491-39.547-39.353-2.932-35.139-8.868-68.178-17.495-97.17a290.88 290.88 0 0112.418-3.753c44.061-12.206 77.079-9.005 90.586 8.781 7.661 10.088 9.24 24.549 4.694 42.979a7.838 7.838 0 0015.217 3.755c5.656-22.926 3.088-42.364-7.428-56.212-17.849-23.503-55.939-28.619-107.253-14.407a306.353 306.353 0 00-13.038 3.94 305.268 305.268 0 00-4.747-12.767C300.229 27.239 273.118 0 243.606 0s-56.623 27.239-76.338 76.702a304.338 304.338 0 00-4.751 12.777c-17.149-5.602-33.432-9.333-48.348-10.942a7.837 7.837 0 00-1.681 15.583c13.926 1.503 29.159 4.996 45.238 10.238-8.632 28.999-14.571 62.049-17.504 97.2-14.29 12.86-27.549 26.05-39.543 39.347-11.682-14.052-21.816-28.107-30.106-41.872-23.585-39.168-29.367-71.834-15.86-89.619 5.13-6.757 13.016-11.457 23.44-13.968a7.838 7.838 0 00-3.67-15.238c-14.028 3.38-24.879 10.017-32.252 19.727-17.849 23.504-12.552 61.569 14.915 107.183 9.068 15.057 20.217 30.423 33.11 45.746-12.894 15.322-24.043 30.688-33.11 45.746-27.467 45.614-32.764 83.679-14.915 107.182 11.227 14.784 30.458 22.293 55.957 22.292 15.038 0 32.259-2.613 51.295-7.886a306.83 306.83 0 0013.039-3.94 305.268 305.268 0 004.747 12.767c19.714 49.461 46.825 76.702 76.338 76.702 29.513 0 56.623-27.239 76.338-76.702 1.649-4.138 3.23-8.4 4.747-12.767a305.343 305.343 0 0013.038 3.94c19.039 5.274 36.255 7.886 51.295 7.886 25.494 0 44.731-7.51 55.957-22.292 17.849-23.504 12.552-61.569-14.915-107.182-9.071-15.067-20.227-30.439-33.126-45.768zm-20.731.015c-8.583 9.59-17.86 19.158-27.759 28.599.429-9.428.653-18.969.653-28.594 0-9.629-.225-19.173-.654-28.604 9.89 9.431 19.171 18.994 27.76 28.599zm-78.278 71.541c-17.903 13.595-36.152 25.929-54.326 36.788-18.174-10.859-36.423-23.193-54.325-36.788a607.055 607.055 0 01-33.93-27.739 607.383 607.383 0 01-1.57-43.798c0-14.857.535-29.499 1.57-43.798a607.055 607.055 0 0133.93-27.739c17.896-13.591 36.14-25.922 54.308-36.777 18.159 10.846 36.434 23.176 54.344 36.777a607.055 607.055 0 0133.93 27.739 607.334 607.334 0 011.57 43.797c0 14.852-.535 29.489-1.569 43.782a604.335 604.335 0 01-33.932 27.756zm31.864-5.339c-3.123 27.72-8.21 53.775-15.094 77.07-17.996-6.819-36.691-15.587-55.599-26.033 16.204-10.018 32.4-21.133 48.308-33.214a628.828 628.828 0 0022.385-17.823zm-101.688 51.035c-18.907 10.446-37.603 19.214-55.598 26.033-6.883-23.294-11.969-49.346-15.093-77.066a630.558 630.558 0 0022.384 17.82c15.907 12.08 32.103 23.195 48.307 33.213zm101.688-183.43a629.712 629.712 0 00-22.385-17.821c-15.908-12.081-32.127-23.186-48.341-33.195 18.92-10.454 37.626-19.228 55.632-26.051 6.883 23.294 11.97 49.348 15.094 77.067zM181.828 82.504c16.928-42.471 39.446-66.831 61.779-66.831 22.333 0 44.849 24.36 61.779 66.831a290.755 290.755 0 014.521 12.158c-21.448 8.08-43.812 18.798-66.334 31.743-22.592-12.967-44.967-23.666-66.274-31.714a288.466 288.466 0 014.529-12.187zm-9.313 27.078c17.873 6.791 36.582 15.566 55.573 26.061-16.197 10.015-32.386 21.126-48.287 33.201a627.617 627.617 0 00-22.384 17.82c3.124-27.726 8.212-53.784 15.098-77.082zM138.76 224.258a629.654 629.654 0 00-.654 28.604c0 9.629.225 19.173.654 28.604-9.891-9.432-19.173-18.998-27.764-28.604 8.591-9.607 17.874-19.172 27.764-28.604zm6.538 180.834c-44.064 12.203-77.08 9.005-90.586-8.781-13.506-17.785-7.725-50.45 15.861-89.618 8.29-13.766 18.424-27.819 30.106-41.872 11.994 13.296 25.253 26.488 39.543 39.348 2.932 35.138 8.868 68.178 17.495 97.17a290.918 290.918 0 01-12.419 3.753zm160.086 18.128c-16.928 42.472-39.446 66.831-61.779 66.831-22.333 0-44.849-24.36-61.779-66.831-1.57-3.939-3.075-8-4.521-12.159 21.437-8.076 43.789-18.785 66.299-31.722 22.511 12.936 44.863 23.646 66.3 31.722a289.4 289.4 0 01-4.52 12.159zM432.5 396.311c-13.506 17.786-46.523 20.986-90.585 8.781a292.33 292.33 0 01-12.418-3.753c8.629-28.999 14.566-62.046 17.497-97.193 14.288-12.868 27.545-26.065 39.525-39.342 11.688 14.058 21.828 28.119 30.121 41.89 23.585 39.167 29.366 71.832 15.86 89.617zM100.774 36.081h4.715v4.715a7.837 7.837 0 0015.674 0v-4.715h4.715a7.837 7.837 0 000-15.674h-4.715v-4.714a7.837 7.837 0 10-15.674 0v4.714h-4.715a7.837 7.837 0 000 15.674z" fill="#000"/>
    <path d="M472.312 233.837h-4.715v-4.715a7.837 7.837 0 00-15.674 0v4.715h-4.715a7.837 7.837 0 000 15.674h4.715v4.715a7.837 7.837 0 0015.674 0v-4.715h4.715a7.837 7.837 0 000-15.674zM125.878 483.775h-4.715v-4.715a7.837 7.837 0 10-15.674 0v4.715h-4.715a7.837 7.837 0 000 15.674h4.715v4.715a7.837 7.837 0 0015.674 0v-4.715h4.715a7.837 7.837 0 000-15.674zM272.463 189.19a7.836 7.836 0 10-6.478 14.272c19.34 8.777 31.836 28.168 31.836 49.399 0 29.895-24.321 54.217-54.217 54.217-29.896 0-54.217-24.321-54.217-54.217 0-27.451 20.52-50.594 47.73-53.834a7.838 7.838 0 00-1.852-15.564c-35.09 4.178-61.55 34.011-61.55 69.397 0 38.537 31.352 69.89 69.89 69.89 38.537 0 69.89-31.352 69.89-69.89 0-27.364-16.106-52.357-41.032-63.67z" fill="#000"/>
  </g>
  <defs>
    <clipPath id="jp1lMr8VI98aa">
      <path fill="#fff" d="M0 0h512v512H0z"/>
    </clipPath>
  </defs>
</svg>
