<svg xmlns="http://www.w3.org/2000/svg" fill="none" viewBox="0 0 24 24">
  <path d="M3.297 5.234a2.599 2.599 0 011.937-1.937 5.544 5.544 0 012.532 0 2.599 2.599 0 011.937 1.937c.195.833.195 1.7 0 2.532a2.599 2.599 0 01-1.937 1.937c-.833.195-1.7.195-2.532 0a2.599 2.599 0 01-1.937-1.937 5.545 5.545 0 010-2.532zm0 11a2.599 2.599 0 011.937-1.937 5.546 5.546 0 012.532 0 2.599 2.599 0 011.937 1.937c.195.832.195 1.7 0 2.532a2.599 2.599 0 01-1.937 1.937c-.833.195-1.7.195-2.532 0a2.599 2.599 0 01-1.937-1.937 5.545 5.545 0 010-2.532zm11-11a2.599 2.599 0 011.937-1.937 5.544 5.544 0 012.532 0 2.599 2.599 0 011.937 1.937c.195.833.195 1.7 0 2.532a2.599 2.599 0 01-1.937 1.937c-.833.195-1.7.195-2.532 0a2.599 2.599 0 01-1.937-1.937 5.546 5.546 0 010-2.532zm0 11a2.599 2.599 0 011.937-1.937 5.546 5.546 0 012.532 0 2.599 2.599 0 011.937 1.937c.195.832.195 1.7 0 2.532a2.599 2.599 0 01-1.937 1.937c-.833.195-1.7.195-2.532 0a2.599 2.599 0 01-1.937-1.937 5.546 5.546 0 010-2.532z" stroke="#fff" stroke-width="1.5"/>
</svg>
