<svg xmlns="http://www.w3.org/2000/svg" version="1.1" opacity=".1" viewBox="0 0 800 800">
  <path d="M0 0l66.667 66.667m0-66.667l66.666 66.667m0-66.667L200 66.667M200 0l66.667 66.667m0-66.667l66.666 66.667m0-66.667L400 66.667M400 0l66.667 66.667m0-66.667l66.666 66.667m0-66.667L600 66.667M600 0l66.667 66.667m0-66.667l66.666 66.667m0-66.667L800 66.667M800 0l66.667 66.667M0 66.667l66.667 66.666m0-66.666l66.666 66.666m0-66.666L200 133.333m0-66.666l66.667 66.666m0-66.666l66.666 66.666m0-66.666L400 133.333m0-66.666l66.667 66.666m0-66.666l66.666 66.666m0-66.666L600 133.333m0-66.666l66.667 66.666m0-66.666l66.666 66.666m0-66.666L800 133.333m0-66.666l66.667 66.666M0 133.333L66.667 200m0-66.667L133.333 200m0-66.667L200 200m0-66.667L266.667 200m0-66.667L333.333 200m0-66.667L400 200m0-66.667L466.667 200m0-66.667L533.333 200m0-66.667L600 200m0-66.667L666.667 200m0-66.667L733.333 200m0-66.667L800 200m0-66.667L866.667 200M0 200l66.667 66.667m0-66.667l66.666 66.667m0-66.667L200 266.667M200 200l66.667 66.667m0-66.667l66.666 66.667m0-66.667L400 266.667M400 200l66.667 66.667m0-66.667l66.666 66.667m0-66.667L600 266.667M600 200l66.667 66.667m0-66.667l66.666 66.667m0-66.667L800 266.667M800 200l66.667 66.667M0 266.667l66.667 66.666m0-66.666l66.666 66.666m0-66.666L200 333.333m0-66.666l66.667 66.666m0-66.666l66.666 66.666m0-66.666L400 333.333m0-66.666l66.667 66.666m0-66.666l66.666 66.666m0-66.666L600 333.333m0-66.666l66.667 66.666m0-66.666l66.666 66.666m0-66.666L800 333.333m0-66.666l66.667 66.666M0 333.333L66.667 400m0-66.667L133.333 400m0-66.667L200 400m0-66.667L266.667 400m0-66.667L333.333 400m0-66.667L400 400m0-66.667L466.667 400m0-66.667L533.333 400m0-66.667L600 400m0-66.667L666.667 400m0-66.667L733.333 400m0-66.667L800 400m0-66.667L866.667 400M0 400l66.667 66.667m0-66.667l66.666 66.667m0-66.667L200 466.667M200 400l66.667 66.667m0-66.667l66.666 66.667m0-66.667L400 466.667M400 400l66.667 66.667m0-66.667l66.666 66.667m0-66.667L600 466.667M600 400l66.667 66.667m0-66.667l66.666 66.667m0-66.667L800 466.667M800 400l66.667 66.667M0 466.667l66.667 66.666m0-66.666l66.666 66.666m0-66.666L200 533.333m0-66.666l66.667 66.666m0-66.666l66.666 66.666m0-66.666L400 533.333m0-66.666l66.667 66.666m0-66.666l66.666 66.666m0-66.666L600 533.333m0-66.666l66.667 66.666m0-66.666l66.666 66.666m0-66.666L800 533.333m0-66.666l66.667 66.666M0 533.333L66.667 600m0-66.667L133.333 600m0-66.667L200 600m0-66.667L266.667 600m0-66.667L333.333 600m0-66.667L400 600m0-66.667L466.667 600m0-66.667L533.333 600m0-66.667L600 600m0-66.667L666.667 600m0-66.667L733.333 600m0-66.667L800 600m0-66.667L866.667 600M0 600l66.667 66.667m0-66.667l66.666 66.667m0-66.667L200 666.667M200 600l66.667 66.667m0-66.667l66.666 66.667m0-66.667L400 666.667M400 600l66.667 66.667m0-66.667l66.666 66.667m0-66.667L600 666.667M600 600l66.667 66.667m0-66.667l66.666 66.667m0-66.667L800 666.667M800 600l66.667 66.667M0 666.667l66.667 66.666m0-66.666l66.666 66.666m0-66.666L200 733.333m0-66.666l66.667 66.666m0-66.666l66.666 66.666m0-66.666L400 733.333m0-66.666l66.667 66.666m0-66.666l66.666 66.666m0-66.666L600 733.333m0-66.666l66.667 66.666m0-66.666l66.666 66.666m0-66.666L800 733.333m0-66.666l66.667 66.666M0 733.333L66.667 800m0-66.667L133.333 800m0-66.667L200 800m0-66.667L266.667 800m0-66.667L333.333 800m0-66.667L400 800m0-66.667L466.667 800m0-66.667L533.333 800m0-66.667L600 800m0-66.667L666.667 800m0-66.667L733.333 800m0-66.667L800 800m0-66.667L866.667 800M0 800l66.667 66.667m0-66.667l66.666 66.667m0-66.667L200 866.667M200 800l66.667 66.667m0-66.667l66.666 66.667m0-66.667L400 866.667M400 800l66.667 66.667m0-66.667l66.666 66.667m0-66.667L600 866.667M600 800l66.667 66.667m0-66.667l66.666 66.667m0-66.667L800 866.667M800 800l66.667 66.667" stroke-width="3.5" stroke="hsla(261, 6%, 53%, 1.00)" fill="none"/>
</svg>
