<svg xmlns="http://www.w3.org/2000/svg" fill="#000" viewBox="0 0 32 32" version="1.1">
  <path d="M0 16q0 .832.576 1.44t1.44.576h4q.8 0 1.408-.576T8 16t-.576-1.408-1.408-.576h-4q-.832 0-1.44.576T0 16zm4.096 9.888q0 .832.608 1.44t1.408.576 1.408-.576l2.816-2.816q.608-.608.608-1.408t-.608-1.44-1.408-.576-1.408.576l-2.816 2.848q-.608.576-.608 1.376zm0-19.776q0 .832.608 1.408l2.816 2.848q.576.576 1.408.576t1.408-.576.608-1.44-.608-1.408L7.52 4.704q-.576-.608-1.408-.608t-1.408.608-.608 1.408zm9.92 23.904q0 .832.576 1.408T16 32t1.408-.576.608-1.408v-4q0-.832-.608-1.408T16 24t-1.408.608-.576 1.408v4zm0-24q0 .832.576 1.408T16 8t1.408-.576.608-1.408v-4q0-.832-.608-1.408T16 0t-1.408.608-.576 1.408v4zm7.04 17.088q0 .8.608 1.408l2.816 2.816q.576.576 1.408.576t1.44-.576.576-1.44-.576-1.376l-2.848-2.848q-.576-.576-1.408-.576t-1.408.576-.608 1.44zm0-14.176q0 .832.608 1.44t1.408.576 1.408-.576l2.848-2.848q.576-.576.576-1.408t-.576-1.408-1.44-.608-1.408.608L21.664 7.52q-.608.576-.608 1.408zM24 16q0 .832.576 1.44t1.44.576h4q.8 0 1.408-.576T32 16t-.576-1.408-1.408-.576h-4q-.832 0-1.44.576T24 16z"/>
</svg>
