<svg xmlns="http://www.w3.org/2000/svg" version="1.1" opacity=".34" viewBox="0 0 800 800">
  <g stroke-width="3.5" stroke="hsla(0, 0%, 100%, 1.00)" fill="none">
    <path d="M0 0l66.667 66.667m0-66.667L0 66.667"/>
    <path opacity=".15" d="M0 0h66.667v66.667H0z"/>
    <path d="M66.667 0l66.666 66.667m0-66.667L66.667 66.667"/>
    <path opacity=".15" d="M66.667 0h66.667v66.667H66.667z"/>
    <path d="M133.333 0L200 66.667M200 0l-66.667 66.667"/>
    <path opacity=".15" d="M133.333 0H200v66.667h-66.667z"/>
    <path d="M200 0l66.667 66.667m0-66.667L200 66.667"/>
    <path opacity=".15" d="M200 0h66.667v66.667H200z"/>
    <path d="M266.667 0l66.666 66.667m0-66.667l-66.666 66.667"/>
    <path opacity=".15" d="M266.667 0h66.667v66.667h-66.667z"/>
    <path d="M333.333 0L400 66.667M400 0l-66.667 66.667"/>
    <path opacity=".15" d="M333.333 0H400v66.667h-66.667z"/>
    <path d="M400 0l66.667 66.667m0-66.667L400 66.667"/>
    <path opacity=".15" d="M400 0h66.667v66.667H400z"/>
    <path d="M466.667 0l66.666 66.667m0-66.667l-66.666 66.667"/>
    <path opacity=".15" d="M466.667 0h66.667v66.667h-66.667z"/>
    <path d="M533.333 0L600 66.667M600 0l-66.667 66.667"/>
    <path opacity=".15" d="M533.333 0H600v66.667h-66.667z"/>
    <path d="M600 0l66.667 66.667m0-66.667L600 66.667"/>
    <path opacity=".15" d="M600 0h66.667v66.667H600z"/>
    <path d="M666.667 0l66.666 66.667m0-66.667l-66.666 66.667"/>
    <path opacity=".15" d="M666.667 0h66.667v66.667h-66.667z"/>
    <path d="M733.333 0L800 66.667M800 0l-66.667 66.667"/>
    <path opacity=".15" d="M733.333 0H800v66.667h-66.667z"/>
    <path d="M800 0l66.667 66.667m0-66.667L800 66.667"/>
    <path opacity=".15" d="M800 0h66.667v66.667H800z"/>
    <path d="M0 66.667l66.667 66.666m0-66.666L0 133.333"/>
    <path opacity=".15" d="M0 66.667h66.667v66.667H0z"/>
    <path d="M66.667 66.667l66.666 66.666m0-66.666l-66.666 66.666"/>
    <path opacity=".15" d="M66.667 66.667h66.667v66.667H66.667z"/>
    <path d="M133.333 66.667L200 133.333m0-66.666l-66.667 66.666"/>
    <path opacity=".15" d="M133.333 66.667H200v66.667h-66.667z"/>
    <path d="M200 66.667l66.667 66.666m0-66.666L200 133.333"/>
    <path opacity=".15" d="M200 66.667h66.667v66.667H200z"/>
    <path d="M266.667 66.667l66.666 66.666m0-66.666l-66.666 66.666"/>
    <path opacity=".15" d="M266.667 66.667h66.667v66.667h-66.667z"/>
    <path d="M333.333 66.667L400 133.333m0-66.666l-66.667 66.666"/>
    <path opacity=".15" d="M333.333 66.667H400v66.667h-66.667z"/>
    <path d="M400 66.667l66.667 66.666m0-66.666L400 133.333"/>
    <path opacity=".15" d="M400 66.667h66.667v66.667H400z"/>
    <path d="M466.667 66.667l66.666 66.666m0-66.666l-66.666 66.666"/>
    <path opacity=".15" d="M466.667 66.667h66.667v66.667h-66.667z"/>
    <path d="M533.333 66.667L600 133.333m0-66.666l-66.667 66.666"/>
    <path opacity=".15" d="M533.333 66.667H600v66.667h-66.667z"/>
    <path d="M600 66.667l66.667 66.666m0-66.666L600 133.333"/>
    <path opacity=".15" d="M600 66.667h66.667v66.667H600z"/>
    <path d="M666.667 66.667l66.666 66.666m0-66.666l-66.666 66.666"/>
    <path opacity=".15" d="M666.667 66.667h66.667v66.667h-66.667z"/>
    <path d="M733.333 66.667L800 133.333m0-66.666l-66.667 66.666"/>
    <path opacity=".15" d="M733.333 66.667H800v66.667h-66.667z"/>
    <path d="M800 66.667l66.667 66.666m0-66.666L800 133.333"/>
    <path opacity=".15" d="M800 66.667h66.667v66.667H800z"/>
    <path d="M0 133.333L66.667 200m0-66.667L0 200"/>
    <path opacity=".15" d="M0 133.333h66.667V200H0z"/>
    <path d="M66.667 133.333L133.333 200m0-66.667L66.667 200"/>
    <path opacity=".15" d="M66.667 133.333h66.667V200H66.667z"/>
    <path d="M133.333 133.333L200 200m0-66.667L133.333 200"/>
    <path opacity=".15" d="M133.333 133.333H200V200h-66.667z"/>
    <path d="M200 133.333L266.667 200m0-66.667L200 200"/>
    <path opacity=".15" d="M200 133.333h66.667V200H200z"/>
    <path d="M266.667 133.333L333.333 200m0-66.667L266.667 200"/>
    <path opacity=".15" d="M266.667 133.333h66.667V200h-66.667z"/>
    <path d="M333.333 133.333L400 200m0-66.667L333.333 200"/>
    <path opacity=".15" d="M333.333 133.333H400V200h-66.667z"/>
    <path d="M400 133.333L466.667 200m0-66.667L400 200"/>
    <path opacity=".15" d="M400 133.333h66.667V200H400z"/>
    <path d="M466.667 133.333L533.333 200m0-66.667L466.667 200"/>
    <path opacity=".15" d="M466.667 133.333h66.667V200h-66.667z"/>
    <path d="M533.333 133.333L600 200m0-66.667L533.333 200"/>
    <path opacity=".15" d="M533.333 133.333H600V200h-66.667z"/>
    <path d="M600 133.333L666.667 200m0-66.667L600 200"/>
    <path opacity=".15" d="M600 133.333h66.667V200H600z"/>
    <path d="M666.667 133.333L733.333 200m0-66.667L666.667 200"/>
    <path opacity=".15" d="M666.667 133.333h66.667V200h-66.667z"/>
    <path d="M733.333 133.333L800 200m0-66.667L733.333 200"/>
    <path opacity=".15" d="M733.333 133.333H800V200h-66.667z"/>
    <path d="M800 133.333L866.667 200m0-66.667L800 200"/>
    <path opacity=".15" d="M800 133.333h66.667V200H800z"/>
    <path d="M0 200l66.667 66.667m0-66.667L0 266.667"/>
    <path opacity=".15" d="M0 200h66.667v66.667H0z"/>
    <path d="M66.667 200l66.666 66.667m0-66.667l-66.666 66.667"/>
    <path opacity=".15" d="M66.667 200h66.667v66.667H66.667z"/>
    <path d="M133.333 200L200 266.667M200 200l-66.667 66.667"/>
    <path opacity=".15" d="M133.333 200H200v66.667h-66.667z"/>
    <path d="M200 200l66.667 66.667m0-66.667L200 266.667"/>
    <path opacity=".15" d="M200 200h66.667v66.667H200z"/>
    <path d="M266.667 200l66.666 66.667m0-66.667l-66.666 66.667"/>
    <path opacity=".15" d="M266.667 200h66.667v66.667h-66.667z"/>
    <path d="M333.333 200L400 266.667M400 200l-66.667 66.667"/>
    <path opacity=".15" d="M333.333 200H400v66.667h-66.667z"/>
    <path d="M400 200l66.667 66.667m0-66.667L400 266.667"/>
    <path opacity=".15" d="M400 200h66.667v66.667H400z"/>
    <path d="M466.667 200l66.666 66.667m0-66.667l-66.666 66.667"/>
    <path opacity=".15" d="M466.667 200h66.667v66.667h-66.667z"/>
    <path d="M533.333 200L600 266.667M600 200l-66.667 66.667"/>
    <path opacity=".15" d="M533.333 200H600v66.667h-66.667z"/>
    <path d="M600 200l66.667 66.667m0-66.667L600 266.667"/>
    <path opacity=".15" d="M600 200h66.667v66.667H600z"/>
    <path d="M666.667 200l66.666 66.667m0-66.667l-66.666 66.667"/>
    <path opacity=".15" d="M666.667 200h66.667v66.667h-66.667z"/>
    <path d="M733.333 200L800 266.667M800 200l-66.667 66.667"/>
    <path opacity=".15" d="M733.333 200H800v66.667h-66.667z"/>
    <path d="M800 200l66.667 66.667m0-66.667L800 266.667"/>
    <path opacity=".15" d="M800 200h66.667v66.667H800z"/>
    <path d="M0 266.667l66.667 66.666m0-66.666L0 333.333"/>
    <path opacity=".15" d="M0 266.667h66.667v66.667H0z"/>
    <path d="M66.667 266.667l66.666 66.666m0-66.666l-66.666 66.666"/>
    <path opacity=".15" d="M66.667 266.667h66.667v66.667H66.667z"/>
    <path d="M133.333 266.667L200 333.333m0-66.666l-66.667 66.666"/>
    <path opacity=".15" d="M133.333 266.667H200v66.667h-66.667z"/>
    <path d="M200 266.667l66.667 66.666m0-66.666L200 333.333"/>
    <path opacity=".15" d="M200 266.667h66.667v66.667H200z"/>
    <path d="M266.667 266.667l66.666 66.666m0-66.666l-66.666 66.666"/>
    <path opacity=".15" d="M266.667 266.667h66.667v66.667h-66.667z"/>
    <path d="M333.333 266.667L400 333.333m0-66.666l-66.667 66.666"/>
    <path opacity=".15" d="M333.333 266.667H400v66.667h-66.667z"/>
    <path d="M400 266.667l66.667 66.666m0-66.666L400 333.333"/>
    <path opacity=".15" d="M400 266.667h66.667v66.667H400z"/>
    <path d="M466.667 266.667l66.666 66.666m0-66.666l-66.666 66.666"/>
    <path opacity=".15" d="M466.667 266.667h66.667v66.667h-66.667z"/>
    <path d="M533.333 266.667L600 333.333m0-66.666l-66.667 66.666"/>
    <path opacity=".15" d="M533.333 266.667H600v66.667h-66.667z"/>
    <path d="M600 266.667l66.667 66.666m0-66.666L600 333.333"/>
    <path opacity=".15" d="M600 266.667h66.667v66.667H600z"/>
    <path d="M666.667 266.667l66.666 66.666m0-66.666l-66.666 66.666"/>
    <path opacity=".15" d="M666.667 266.667h66.667v66.667h-66.667z"/>
    <path d="M733.333 266.667L800 333.333m0-66.666l-66.667 66.666"/>
    <path opacity=".15" d="M733.333 266.667H800v66.667h-66.667z"/>
    <path d="M800 266.667l66.667 66.666m0-66.666L800 333.333"/>
    <path opacity=".15" d="M800 266.667h66.667v66.667H800z"/>
    <path d="M0 333.333L66.667 400m0-66.667L0 400"/>
    <path opacity=".15" d="M0 333.333h66.667V400H0z"/>
    <path d="M66.667 333.333L133.333 400m0-66.667L66.667 400"/>
    <path opacity=".15" d="M66.667 333.333h66.667V400H66.667z"/>
    <path d="M133.333 333.333L200 400m0-66.667L133.333 400"/>
    <path opacity=".15" d="M133.333 333.333H200V400h-66.667z"/>
    <path d="M200 333.333L266.667 400m0-66.667L200 400"/>
    <path opacity=".15" d="M200 333.333h66.667V400H200z"/>
    <path d="M266.667 333.333L333.333 400m0-66.667L266.667 400"/>
    <path opacity=".15" d="M266.667 333.333h66.667V400h-66.667z"/>
    <path d="M333.333 333.333L400 400m0-66.667L333.333 400"/>
    <path opacity=".15" d="M333.333 333.333H400V400h-66.667z"/>
    <path d="M400 333.333L466.667 400m0-66.667L400 400"/>
    <path opacity=".15" d="M400 333.333h66.667V400H400z"/>
    <path d="M466.667 333.333L533.333 400m0-66.667L466.667 400"/>
    <path opacity=".15" d="M466.667 333.333h66.667V400h-66.667z"/>
    <path d="M533.333 333.333L600 400m0-66.667L533.333 400"/>
    <path opacity=".15" d="M533.333 333.333H600V400h-66.667z"/>
    <path d="M600 333.333L666.667 400m0-66.667L600 400"/>
    <path opacity=".15" d="M600 333.333h66.667V400H600z"/>
    <path d="M666.667 333.333L733.333 400m0-66.667L666.667 400"/>
    <path opacity=".15" d="M666.667 333.333h66.667V400h-66.667z"/>
    <path d="M733.333 333.333L800 400m0-66.667L733.333 400"/>
    <path opacity=".15" d="M733.333 333.333H800V400h-66.667z"/>
    <path d="M800 333.333L866.667 400m0-66.667L800 400"/>
    <path opacity=".15" d="M800 333.333h66.667V400H800z"/>
    <path d="M0 400l66.667 66.667m0-66.667L0 466.667"/>
    <path opacity=".15" d="M0 400h66.667v66.667H0z"/>
    <path d="M66.667 400l66.666 66.667m0-66.667l-66.666 66.667"/>
    <path opacity=".15" d="M66.667 400h66.667v66.667H66.667z"/>
    <path d="M133.333 400L200 466.667M200 400l-66.667 66.667"/>
    <path opacity=".15" d="M133.333 400H200v66.667h-66.667z"/>
    <path d="M200 400l66.667 66.667m0-66.667L200 466.667"/>
    <path opacity=".15" d="M200 400h66.667v66.667H200z"/>
    <path d="M266.667 400l66.666 66.667m0-66.667l-66.666 66.667"/>
    <path opacity=".15" d="M266.667 400h66.667v66.667h-66.667z"/>
    <path d="M333.333 400L400 466.667M400 400l-66.667 66.667"/>
    <path opacity=".15" d="M333.333 400H400v66.667h-66.667z"/>
    <path d="M400 400l66.667 66.667m0-66.667L400 466.667"/>
    <path opacity=".15" d="M400 400h66.667v66.667H400z"/>
    <path d="M466.667 400l66.666 66.667m0-66.667l-66.666 66.667"/>
    <path opacity=".15" d="M466.667 400h66.667v66.667h-66.667z"/>
    <path d="M533.333 400L600 466.667M600 400l-66.667 66.667"/>
    <path opacity=".15" d="M533.333 400H600v66.667h-66.667z"/>
    <path d="M600 400l66.667 66.667m0-66.667L600 466.667"/>
    <path opacity=".15" d="M600 400h66.667v66.667H600z"/>
    <path d="M666.667 400l66.666 66.667m0-66.667l-66.666 66.667"/>
    <path opacity=".15" d="M666.667 400h66.667v66.667h-66.667z"/>
    <path d="M733.333 400L800 466.667M800 400l-66.667 66.667"/>
    <path opacity=".15" d="M733.333 400H800v66.667h-66.667z"/>
    <path d="M800 400l66.667 66.667m0-66.667L800 466.667"/>
    <path opacity=".15" d="M800 400h66.667v66.667H800z"/>
    <path d="M0 466.667l66.667 66.666m0-66.666L0 533.333"/>
    <path opacity=".15" d="M0 466.667h66.667v66.667H0z"/>
    <path d="M66.667 466.667l66.666 66.666m0-66.666l-66.666 66.666"/>
    <path opacity=".15" d="M66.667 466.667h66.667v66.667H66.667z"/>
    <path d="M133.333 466.667L200 533.333m0-66.666l-66.667 66.666"/>
    <path opacity=".15" d="M133.333 466.667H200v66.667h-66.667z"/>
    <path d="M200 466.667l66.667 66.666m0-66.666L200 533.333"/>
    <path opacity=".15" d="M200 466.667h66.667v66.667H200z"/>
    <path d="M266.667 466.667l66.666 66.666m0-66.666l-66.666 66.666"/>
    <path opacity=".15" d="M266.667 466.667h66.667v66.667h-66.667z"/>
    <path d="M333.333 466.667L400 533.333m0-66.666l-66.667 66.666"/>
    <path opacity=".15" d="M333.333 466.667H400v66.667h-66.667z"/>
    <path d="M400 466.667l66.667 66.666m0-66.666L400 533.333"/>
    <path opacity=".15" d="M400 466.667h66.667v66.667H400z"/>
    <path d="M466.667 466.667l66.666 66.666m0-66.666l-66.666 66.666"/>
    <path opacity=".15" d="M466.667 466.667h66.667v66.667h-66.667z"/>
    <path d="M533.333 466.667L600 533.333m0-66.666l-66.667 66.666"/>
    <path opacity=".15" d="M533.333 466.667H600v66.667h-66.667z"/>
    <path d="M600 466.667l66.667 66.666m0-66.666L600 533.333"/>
    <path opacity=".15" d="M600 466.667h66.667v66.667H600z"/>
    <path d="M666.667 466.667l66.666 66.666m0-66.666l-66.666 66.666"/>
    <path opacity=".15" d="M666.667 466.667h66.667v66.667h-66.667z"/>
    <path d="M733.333 466.667L800 533.333m0-66.666l-66.667 66.666"/>
    <path opacity=".15" d="M733.333 466.667H800v66.667h-66.667z"/>
    <path d="M800 466.667l66.667 66.666m0-66.666L800 533.333"/>
    <path opacity=".15" d="M800 466.667h66.667v66.667H800z"/>
    <path d="M0 533.333L66.667 600m0-66.667L0 600"/>
    <path opacity=".15" d="M0 533.333h66.667V600H0z"/>
    <path d="M66.667 533.333L133.333 600m0-66.667L66.667 600"/>
    <path opacity=".15" d="M66.667 533.333h66.667V600H66.667z"/>
    <path d="M133.333 533.333L200 600m0-66.667L133.333 600"/>
    <path opacity=".15" d="M133.333 533.333H200V600h-66.667z"/>
    <path d="M200 533.333L266.667 600m0-66.667L200 600"/>
    <path opacity=".15" d="M200 533.333h66.667V600H200z"/>
    <path d="M266.667 533.333L333.333 600m0-66.667L266.667 600"/>
    <path opacity=".15" d="M266.667 533.333h66.667V600h-66.667z"/>
    <path d="M333.333 533.333L400 600m0-66.667L333.333 600"/>
    <path opacity=".15" d="M333.333 533.333H400V600h-66.667z"/>
    <path d="M400 533.333L466.667 600m0-66.667L400 600"/>
    <path opacity=".15" d="M400 533.333h66.667V600H400z"/>
    <path d="M466.667 533.333L533.333 600m0-66.667L466.667 600"/>
    <path opacity=".15" d="M466.667 533.333h66.667V600h-66.667z"/>
    <path d="M533.333 533.333L600 600m0-66.667L533.333 600"/>
    <path opacity=".15" d="M533.333 533.333H600V600h-66.667z"/>
    <path d="M600 533.333L666.667 600m0-66.667L600 600"/>
    <path opacity=".15" d="M600 533.333h66.667V600H600z"/>
    <path d="M666.667 533.333L733.333 600m0-66.667L666.667 600"/>
    <path opacity=".15" d="M666.667 533.333h66.667V600h-66.667z"/>
    <path d="M733.333 533.333L800 600m0-66.667L733.333 600"/>
    <path opacity=".15" d="M733.333 533.333H800V600h-66.667z"/>
    <path d="M800 533.333L866.667 600m0-66.667L800 600"/>
    <path opacity=".15" d="M800 533.333h66.667V600H800z"/>
    <path d="M0 600l66.667 66.667m0-66.667L0 666.667"/>
    <path opacity=".15" d="M0 600h66.667v66.667H0z"/>
    <path d="M66.667 600l66.666 66.667m0-66.667l-66.666 66.667"/>
    <path opacity=".15" d="M66.667 600h66.667v66.667H66.667z"/>
    <path d="M133.333 600L200 666.667M200 600l-66.667 66.667"/>
    <path opacity=".15" d="M133.333 600H200v66.667h-66.667z"/>
    <path d="M200 600l66.667 66.667m0-66.667L200 666.667"/>
    <path opacity=".15" d="M200 600h66.667v66.667H200z"/>
    <path d="M266.667 600l66.666 66.667m0-66.667l-66.666 66.667"/>
    <path opacity=".15" d="M266.667 600h66.667v66.667h-66.667z"/>
    <path d="M333.333 600L400 666.667M400 600l-66.667 66.667"/>
    <path opacity=".15" d="M333.333 600H400v66.667h-66.667z"/>
    <path d="M400 600l66.667 66.667m0-66.667L400 666.667"/>
    <path opacity=".15" d="M400 600h66.667v66.667H400z"/>
    <path d="M466.667 600l66.666 66.667m0-66.667l-66.666 66.667"/>
    <path opacity=".15" d="M466.667 600h66.667v66.667h-66.667z"/>
    <path d="M533.333 600L600 666.667M600 600l-66.667 66.667"/>
    <path opacity=".15" d="M533.333 600H600v66.667h-66.667z"/>
    <path d="M600 600l66.667 66.667m0-66.667L600 666.667"/>
    <path opacity=".15" d="M600 600h66.667v66.667H600z"/>
    <path d="M666.667 600l66.666 66.667m0-66.667l-66.666 66.667"/>
    <path opacity=".15" d="M666.667 600h66.667v66.667h-66.667z"/>
    <path d="M733.333 600L800 666.667M800 600l-66.667 66.667"/>
    <path opacity=".15" d="M733.333 600H800v66.667h-66.667z"/>
    <path d="M800 600l66.667 66.667m0-66.667L800 666.667"/>
    <path opacity=".15" d="M800 600h66.667v66.667H800z"/>
    <path d="M0 666.667l66.667 66.666m0-66.666L0 733.333"/>
    <path opacity=".15" d="M0 666.667h66.667v66.667H0z"/>
    <path d="M66.667 666.667l66.666 66.666m0-66.666l-66.666 66.666"/>
    <path opacity=".15" d="M66.667 666.667h66.667v66.667H66.667z"/>
    <path d="M133.333 666.667L200 733.333m0-66.666l-66.667 66.666"/>
    <path opacity=".15" d="M133.333 666.667H200v66.667h-66.667z"/>
    <path d="M200 666.667l66.667 66.666m0-66.666L200 733.333"/>
    <path opacity=".15" d="M200 666.667h66.667v66.667H200z"/>
    <path d="M266.667 666.667l66.666 66.666m0-66.666l-66.666 66.666"/>
    <path opacity=".15" d="M266.667 666.667h66.667v66.667h-66.667z"/>
    <path d="M333.333 666.667L400 733.333m0-66.666l-66.667 66.666"/>
    <path opacity=".15" d="M333.333 666.667H400v66.667h-66.667z"/>
    <path d="M400 666.667l66.667 66.666m0-66.666L400 733.333"/>
    <path opacity=".15" d="M400 666.667h66.667v66.667H400z"/>
    <path d="M466.667 666.667l66.666 66.666m0-66.666l-66.666 66.666"/>
    <path opacity=".15" d="M466.667 666.667h66.667v66.667h-66.667z"/>
    <path d="M533.333 666.667L600 733.333m0-66.666l-66.667 66.666"/>
    <path opacity=".15" d="M533.333 666.667H600v66.667h-66.667z"/>
    <path d="M600 666.667l66.667 66.666m0-66.666L600 733.333"/>
    <path opacity=".15" d="M600 666.667h66.667v66.667H600z"/>
    <path d="M666.667 666.667l66.666 66.666m0-66.666l-66.666 66.666"/>
    <path opacity=".15" d="M666.667 666.667h66.667v66.667h-66.667z"/>
    <path d="M733.333 666.667L800 733.333m0-66.666l-66.667 66.666"/>
    <path opacity=".15" d="M733.333 666.667H800v66.667h-66.667z"/>
    <path d="M800 666.667l66.667 66.666m0-66.666L800 733.333"/>
    <path opacity=".15" d="M800 666.667h66.667v66.667H800z"/>
    <path d="M0 733.333L66.667 800m0-66.667L0 800"/>
    <path opacity=".15" d="M0 733.333h66.667V800H0z"/>
    <path d="M66.667 733.333L133.333 800m0-66.667L66.667 800"/>
    <path opacity=".15" d="M66.667 733.333h66.667V800H66.667z"/>
    <path d="M133.333 733.333L200 800m0-66.667L133.333 800"/>
    <path opacity=".15" d="M133.333 733.333H200V800h-66.667z"/>
    <path d="M200 733.333L266.667 800m0-66.667L200 800"/>
    <path opacity=".15" d="M200 733.333h66.667V800H200z"/>
    <path d="M266.667 733.333L333.333 800m0-66.667L266.667 800"/>
    <path opacity=".15" d="M266.667 733.333h66.667V800h-66.667z"/>
    <path d="M333.333 733.333L400 800m0-66.667L333.333 800"/>
    <path opacity=".15" d="M333.333 733.333H400V800h-66.667z"/>
    <path d="M400 733.333L466.667 800m0-66.667L400 800"/>
    <path opacity=".15" d="M400 733.333h66.667V800H400z"/>
    <path d="M466.667 733.333L533.333 800m0-66.667L466.667 800"/>
    <path opacity=".15" d="M466.667 733.333h66.667V800h-66.667z"/>
    <path d="M533.333 733.333L600 800m0-66.667L533.333 800"/>
    <path opacity=".15" d="M533.333 733.333H600V800h-66.667z"/>
    <path d="M600 733.333L666.667 800m0-66.667L600 800"/>
    <path opacity=".15" d="M600 733.333h66.667V800H600z"/>
    <path d="M666.667 733.333L733.333 800m0-66.667L666.667 800"/>
    <path opacity=".15" d="M666.667 733.333h66.667V800h-66.667z"/>
    <path d="M733.333 733.333L800 800m0-66.667L733.333 800"/>
    <path opacity=".15" d="M733.333 733.333H800V800h-66.667z"/>
    <path d="M800 733.333L866.667 800m0-66.667L800 800"/>
    <path opacity=".15" d="M800 733.333h66.667V800H800z"/>
    <path d="M0 800l66.667 66.667m0-66.667L0 866.667"/>
    <path opacity=".15" d="M0 800h66.667v66.667H0z"/>
    <path d="M66.667 800l66.666 66.667m0-66.667l-66.666 66.667"/>
    <path opacity=".15" d="M66.667 800h66.667v66.667H66.667z"/>
    <path d="M133.333 800L200 866.667M200 800l-66.667 66.667"/>
    <path opacity=".15" d="M133.333 800H200v66.667h-66.667z"/>
    <path d="M200 800l66.667 66.667m0-66.667L200 866.667"/>
    <path opacity=".15" d="M200 800h66.667v66.667H200z"/>
    <path d="M266.667 800l66.666 66.667m0-66.667l-66.666 66.667"/>
    <path opacity=".15" d="M266.667 800h66.667v66.667h-66.667z"/>
    <path d="M333.333 800L400 866.667M400 800l-66.667 66.667"/>
    <path opacity=".15" d="M333.333 800H400v66.667h-66.667z"/>
    <path d="M400 800l66.667 66.667m0-66.667L400 866.667"/>
    <path opacity=".15" d="M400 800h66.667v66.667H400z"/>
    <path d="M466.667 800l66.666 66.667m0-66.667l-66.666 66.667"/>
    <path opacity=".15" d="M466.667 800h66.667v66.667h-66.667z"/>
    <path d="M533.333 800L600 866.667M600 800l-66.667 66.667"/>
    <path opacity=".15" d="M533.333 800H600v66.667h-66.667z"/>
    <path d="M600 800l66.667 66.667m0-66.667L600 866.667"/>
    <path opacity=".15" d="M600 800h66.667v66.667H600z"/>
    <path d="M666.667 800l66.666 66.667m0-66.667l-66.666 66.667"/>
    <path opacity=".15" d="M666.667 800h66.667v66.667h-66.667z"/>
    <path d="M733.333 800L800 866.667M800 800l-66.667 66.667"/>
    <path opacity=".15" d="M733.333 800H800v66.667h-66.667z"/>
    <path d="M800 800l66.667 66.667m0-66.667L800 866.667"/>
    <path opacity=".15" d="M800 800h66.667v66.667H800z"/>
  </g>
</svg>
