<svg xmlns="http://www.w3.org/2000/svg" fill="none" viewBox="0 0 48 48">
  <g filter="url(#yRL_ivx4PcxEa)">
    <circle cx="24" cy="20" r="20" fill="url(#yRL_ivx4PcxEb)"/>
  </g>
  <path d="M26.225 17.05a.575.575 0 01-.575-.575 2.879 2.879 0 00-2.875-2.875.575.575 0 010-1.15 2.879 2.879 0 002.875-2.875.575.575 0 011.15 0 2.879 2.879 0 002.875 2.875.575.575 0 010 1.15 2.879 2.879 0 00-2.875 2.875.575.575 0 01-.575.575zm-1.379-4.025c.564.34 1.039.814 1.38 1.379a4.066 4.066 0 011.378-1.379 4.066 4.066 0 01-1.379-1.379 4.066 4.066 0 01-1.379 1.379zM14.725 20.5a.575.575 0 01-.575-.575.575.575 0 00-.575-.575.575.575 0 010-1.15.575.575 0 00.575-.575.575.575 0 011.15 0c0 .317.258.575.575.575a.575.575 0 010 1.15.575.575 0 00-.575.575.575.575 0 01-.575.575zm19.144 6.83L21.695 15.156a1.711 1.711 0 00-1.22-.504c-.462 0-.895.18-1.22.504l-.674.674a1.712 1.712 0 00-.504 1.22c0 .462.18.895.504 1.22l12.174 12.174c.325.326.758.504 1.22.504.462 0 .895-.18 1.22-.504l.674-.674c.325-.325.504-.758.504-1.22 0-.462-.18-.895-.504-1.22zM19.395 16.643l.674-.674a.57.57 0 01.407-.167c.155 0 .299.06.407.167l1.655 1.655-1.487 1.487-1.655-1.655a.575.575 0 01-.001-.813zm13.66 12.314l-.674.674a.569.569 0 01-.406.167.572.572 0 01-.406-.167l-9.705-9.705 1.487-1.487 9.705 9.705a.575.575 0 010 .813h-.001zM17.025 14.75a.575.575 0 01-.575-.575c0-.951-.774-1.725-1.725-1.725a.575.575 0 010-1.15c.951 0 1.725-.774 1.725-1.725a.575.575 0 011.15 0c0 .951.774 1.725 1.725 1.725a.575.575 0 010 1.15c-.95 0-1.725.774-1.725 1.725a.575.575 0 01-.575.575zm-.577-2.875c.219.164.413.359.577.577.165-.218.36-.413.578-.577a2.921 2.921 0 01-.578-.577 2.924 2.924 0 01-.577.577zm.577 14.375a.575.575 0 01-.575-.575c0-.951-.774-1.725-1.725-1.725a.575.575 0 010-1.15c.951 0 1.725-.774 1.725-1.725a.575.575 0 011.15 0c0 .951.774 1.725 1.725 1.725a.575.575 0 010 1.15c-.95 0-1.725.774-1.725 1.725a.575.575 0 01-.575.575zm-.577-2.875c.219.164.413.359.577.577.165-.218.36-.413.578-.577a2.921 2.921 0 01-.578-.577 2.924 2.924 0 01-.577.577z" fill="#fff"/>
  <defs>
    <linearGradient id="yRL_ivx4PcxEb" x1="24" y1="0" x2="24" y2="40" gradientUnits="userSpaceOnUse">
      <stop stop-color="#5E1EC5"/>
      <stop offset="1"/>
    </linearGradient>
    <filter id="yRL_ivx4PcxEa" x="0" y="0" width="48" height="48" filterUnits="userSpaceOnUse" color-interpolation-filters="sRGB">
      <feFlood flood-opacity="0" result="BackgroundImageFix"/>
      <feColorMatrix in="SourceAlpha" type="matrix" values="0 0 0 0 0 0 0 0 0 0 0 0 0 0 0 0 0 0 127 0" result="hardAlpha"/>
      <feOffset dy="4"/>
      <feGaussianBlur stdDeviation="2"/>
      <feComposite in2="hardAlpha" operator="out"/>
      <feColorMatrix type="matrix" values="0 0 0 0 0 0 0 0 0 0 0 0 0 0 0 0 0 0 0.25 0"/>
      <feBlend mode="normal" in2="BackgroundImageFix" result="effect1_dropShadow_351_10"/>
      <feBlend mode="normal" in="SourceGraphic" in2="effect1_dropShadow_351_10" result="shape"/>
    </filter>
  </defs>
</svg>
