<svg xmlns="http://www.w3.org/2000/svg" fill="none" viewBox="0 0 21 20">
  <path d="M20.348 4.87h-.652v-.435A.435.435 0 0019.26 4h-.435a.435.435 0 00-.435.435v.435h-1.739v-.435A.435.435 0 0016.217 4h-.434a.435.435 0 00-.435.435v.435h-1.74v-.435A.435.435 0 0013.175 4h-.435a.435.435 0 00-.435.435v.435h-.652a.652.652 0 00-.652.652v7.826a.652.652 0 00.652.652h8.696a.652.652 0 00.652-.652V5.522a.652.652 0 00-.652-.652zm-1.522-.435h.435v1.304h-.435V4.435zm-3.043 0h.434v1.304h-.434V4.435zm-3.044 0h.435v1.304h-.435V4.435zm-1.087.87h.652v.434a.435.435 0 00.435.435h.435a.435.435 0 00.435-.435v-.435h1.739v.435a.435.435 0 00.435.435h.434a.435.435 0 00.435-.435v-.435h1.74v.435a.435.435 0 00.434.435h.435a.435.435 0 00.435-.435v-.435h.652a.217.217 0 01.217.218v1.521h-9.13V5.522a.217.217 0 01.217-.218zm8.696 8.26h-8.696a.217.217 0 01-.217-.217v-5.87h9.13v5.87a.217.217 0 01-.217.217z" fill="#231F20"/>
  <path d="M17.848 8.813a.214.214 0 00-.296.078l-1.6 2.796-1.539-1.535a.215.215 0 10-.304.305l1.74 1.739a.206.206 0 00.151.065h.03a.219.219 0 00.157-.109l1.74-3.043a.213.213 0 00-.079-.296z" fill="#231F20"/>
  <path d="M2.5 1A1.5 1.5 0 001 2.5v15A1.5 1.5 0 002.5 19h7.011a1.5 1.5 0 001.5-1.5v-15a1.5 1.5 0 00-1.5-1.5H9.5a.5.5 0 00-.5.5A1.5 1.5 0 017.5 3h-3A1.5 1.5 0 013 1.5a.5.5 0 00-.5-.5zm1.415 0c.055.156.085.325.085.5a.5.5 0 00.5.5h3a.5.5 0 00.5-.5c0-.175.03-.344.085-.5h-4.17zM0 2.5A2.5 2.5 0 012.5 0h7.011a2.5 2.5 0 012.5 2.5v15a2.5 2.5 0 01-2.5 2.5H2.5A2.5 2.5 0 010 17.5v-15z" fill="#000"/>
</svg>
