<svg xmlns="http://www.w3.org/2000/svg" fill="none" viewBox="0 0 48 48">
  <g fill="#333">
    <path clip-rule="evenodd" d="M31.508 13.947l3.397-4.966c-3.14.188-6.94.925-10.584 1.98-2.476.716-5.235.608-7.799.135a28.28 28.28 0 01-2.373-.548l2.307 3.397c4.712 1.74 10.34 1.74 15.052.003zm-16.227 1.69c5.421 2.151 11.994 2.15 17.414-.003 2.204 2.287 4.48 5.132 6.234 8.108 1.833 3.11 2.99 6.187 3.067 8.83.072 2.501-.807 4.656-3.282 6.31-2.623 1.754-7.194 3.042-14.69 3.115-7.498.072-12.076-1.129-14.707-2.83-2.475-1.6-3.371-3.732-3.315-6.247.06-2.659 1.204-5.78 3.034-8.957 1.746-3.032 4.023-5.953 6.245-8.327zm-1.619-7.318c1.027.324 2.116.606 3.223.81 2.398.442 4.814.508 6.88-.09 2.627-.76 5.384-1.375 7.968-1.74C29.528 6.573 26.863 6 24.043 6c-4.069 0-7.846 1.194-10.381 2.32zm-1.915-1.307C14.452 5.657 19.025 4 24.043 4c4.926 0 9.388 1.597 12.08 2.937l.135.067c.726.367 1.316.712 1.742.996l-4.104 6c9.461 9.673 20.754 29.701-9.853 29.997C-6.564 44.293 4.532 24.043 14.076 14L10 8c.285-.187.642-.401 1.062-.63.213-.116.441-.236.685-.358z" fill-rule="evenodd"/>
    <path d="M22.289 21h3.422v1.6h3.423v3.2h-6.845l-.154.013a.87.87 0 00-.505.274c-.128.144-.199.326-.199.513s.07.369.2.513a.87.87 0 00.504.274l.154.013h3.422l.28.008a4.401 4.401 0 012.898 1.303c.747.77 1.145 1.781 1.109 2.82s-.505 2.025-1.305 2.747a4.44 4.44 0 01-2.982 1.122V37H22.29v-1.6h-3.423v-3.2h6.845l.154-.013a.87.87 0 00.505-.274c.128-.144.199-.326.199-.513s-.07-.369-.2-.513a.87.87 0 00-.504-.274l-.154-.013H22.29l-.28-.008a4.401 4.401 0 01-2.898-1.303c-.747-.77-1.145-1.781-1.109-2.82s.505-2.025 1.305-2.747A4.44 4.44 0 0122.29 22.6z"/>
  </g>
</svg>
