<svg xmlns="http://www.w3.org/2000/svg" xmlns:xlink="http://www.w3.org/1999/xlink" viewBox="0 0 128 128">
  <linearGradient id="Y6-r7vfbeb" gradientTransform="matrix(1 0 0 -1 0 128)" gradientUnits="userSpaceOnUse" x1="98.661" x2="98.661" y1="106.18" y2="7.11">
    <stop offset=".007" stop-color="#ffecb3"/>
    <stop offset="1" stop-color="#ffe082"/>
  </linearGradient>
  <linearGradient id="Y6-r7vfbec" gradientUnits="userSpaceOnUse" x1="114.546" x2="114.546" y1="105.456" y2="120.995">
    <stop offset="0" stop-color="#6d6c6b"/>
    <stop offset="1" stop-color="#504f4f"/>
  </linearGradient>
  <linearGradient id="Y6-r7vfbed" gradientTransform="matrix(1 0 0 -1 0 128)" gradientUnits="userSpaceOnUse" x1="34.63" x2="34.63" y1="115.75" y2="72.737">
    <stop offset="0" stop-color="#e0e0e0"/>
    <stop offset="1" stop-color="#9e9e9e"/>
  </linearGradient>
  <linearGradient id="Y6-r7vfbee" gradientTransform="matrix(1 0 0 -1 0 128)" gradientUnits="userSpaceOnUse" x1="23.555" x2="23.555" y1="129.833" y2="88.532">
    <stop offset="0" stop-color="#e57373"/>
    <stop offset="1" stop-color="#f44336"/>
  </linearGradient>
  <linearGradient id="Y6-r7vfbef" gradientTransform="matrix(1 0 0 -1 0 128)" gradientUnits="userSpaceOnUse" x1="65.098" x2="65.098" y1="111.833" y2="37.005">
    <stop offset="0" stop-color="#ffc107"/>
    <stop offset="1" stop-color="#ffa000"/>
  </linearGradient>
  <linearGradient id="Y6-r7vfbea">
    <stop offset="0" stop-color="#ffca28"/>
    <stop offset="1" stop-color="#ffb300"/>
  </linearGradient>
  <linearGradient id="Y6-r7vfbeg" gradientTransform="scale(1 -1) rotate(45 184.51 1.755)" gradientUnits="userSpaceOnUse" x1="40.129" x2="40.129" xlink:href="#Y6-r7vfbea" y1="86.5" y2="15"/>
  <linearGradient id="Y6-r7vfbeh" gradientTransform="scale(1 -1) rotate(45 184.51 1.755)" gradientUnits="userSpaceOnUse" x1="65.472" x2="65.472" xlink:href="#Y6-r7vfbea" y1="86.5" y2="15"/>
  <path d="M123.8 118.75l-6.18-16.49-4.25-11.35c-.96-2.93-2.59-5.59-4.77-7.77l-9.82-9.82-25.46 25.46 9.82 9.82c2.18 2.18 4.84 3.81 7.77 4.77l11.35 4.25 16.49 6.18c3.11 1.01 6.06-1.94 5.05-5.05z" fill="url(#Y6-r7vfbeb)"/>
  <path d="M85.58 106.78l-.03-.03zm21.15-21.23l.21.21c-.07-.07-.12-.16-.19-.23z" fill="none"/>
  <path d="M118.75 123.8l-13.66-5.12c1.47-2.91 3.39-5.56 5.71-7.87 2.31-2.31 4.95-4.23 7.88-5.72l5.12 13.66c1.01 3.11-1.94 6.06-5.05 5.05z" fill="url(#Y6-r7vfbec)"/>
  <path d="M51.6 26.14L26.14 51.6l-8.48-8.49 25.45-25.45z" fill="url(#Y6-r7vfbed)"/>
  <path d="M20.49 45.943l25.455-25.455 2.829 2.828-25.456 25.456z" fill="#9e9e9e"/>
  <path d="M43.11 17.66L17.66 43.11 6.34 31.8c-3.12-3.12-3.12-8.19 0-11.31L20.49 6.34c3.12-3.12 8.19-3.12 11.31 0z" fill="url(#Y6-r7vfbee)"/>
  <path d="M33.68 44.06l10.37-10.37 52.37 52.37.09 2.04c.19 4.4-4.02 8.61-8.42 8.42l-2.04-.09z" fill="url(#Y6-r7vfbef)"/>
  <path d="M26.14 51.6l54.7 54.7c3.07-1.29 5.45-4.5 5.3-7.83l-.09-2.04-52.37-52.37z" fill="url(#Y6-r7vfbeg)"/>
  <path d="M44.06 33.68l52.37 52.37 2.04.09c3.33.14 6.55-2.23 7.83-5.3l-54.7-54.7z" fill="url(#Y6-r7vfbeh)"/>
</svg>
