<svg xmlns="http://www.w3.org/2000/svg" fill="none" viewBox="0 0 650 586">
  <g filter="url(#Lw8UW1uveWAea)">
    <path stroke="#fff" stroke-width="3" d="M153.616 565.28V1.492M266.97 565.28V1.492M380.324 565.28V1.492m113.355 562.296V0m114.107 454.171H43.998m563.788-113.354H43.998m563.788-113.354H43.998m562.298-113.355H42.508"/>
    <rect x="43.262" y="1.5" width="563.771" height="563.771" rx="73.5" stroke="#fff" stroke-width="3"/>
    <path d="M180.086 338.406L86.649 453.817a10 10 0 00-1.527 9.972l25.995 65.694c1.341 3.623 6.105 4.429 8.563 1.448l90.546-109.822 105.862 49.881a10 10 0 0012.528-3.418l237.863-349.333a10 10 0 001.279-8.613L547.05 43.405c-2.485-7.947-13.026-9.554-17.766-2.708l-231.97 335.016a10.001 10.001 0 01-12.463 3.364l-92.752-43.435a10 10 0 00-12.013 2.764z" fill="url(#Lw8UW1uveWAeb)"/>
    <path d="M210.226 421.109l105.862 49.881a10 10 0 0012.528-3.418l237.863-349.333a10 10 0 001.279-8.613L547.05 43.405c-2.485-7.947-13.026-9.554-17.766-2.708l-231.97 335.016a10.001 10.001 0 01-12.463 3.364l-92.752-43.435a10 10 0 00-12.013 2.764L86.649 453.817a10 10 0 00-1.527 9.972l25.995 65.694v0c1.341 3.623 6.105 4.429 8.563 1.448l90.546-109.822zm0 0l.363 1.158" stroke="#000"/>
  </g>
  <defs>
    <radialGradient id="Lw8UW1uveWAeb" cx="0" cy="0" r="1" gradientUnits="userSpaceOnUse" gradientTransform="rotate(85.146 203.652 247.75) scale(511.181 792.852)">
      <stop offset=".198" stop-color="#820E00"/>
      <stop offset=".906" stop-color="#FF2E2E"/>
    </radialGradient>
    <filter id="Lw8UW1uveWAea" x="39.762" y="0" width="574.771" height="585.771" filterUnits="userSpaceOnUse" color-interpolation-filters="sRGB">
      <feFlood flood-opacity="0" result="BackgroundImageFix"/>
      <feColorMatrix in="SourceAlpha" type="matrix" values="0 0 0 0 0 0 0 0 0 0 0 0 0 0 0 0 0 0 127 0" result="hardAlpha"/>
      <feOffset dx="2" dy="15"/>
      <feGaussianBlur stdDeviation="2"/>
      <feColorMatrix type="matrix" values="0 0 0 0 0 0 0 0 0 0 0 0 0 0 0 0 0 0 1 0"/>
      <feBlend mode="normal" in2="BackgroundImageFix" result="effect1_dropShadow_366_28"/>
      <feBlend mode="normal" in="SourceGraphic" in2="effect1_dropShadow_366_28" result="shape"/>
    </filter>
  </defs>
</svg>
