<svg xmlns="http://www.w3.org/2000/svg" fill="none" viewBox="0 0 24 24">
  <path d="M9 22h6c5 0 7-2 7-7V9c0-5-2-7-7-7H9C4 2 2 4 2 9v6c0 5 2 7 7 7z" stroke="#292D32" stroke-width="1.5" stroke-linecap="round" stroke-linejoin="round"/>
  <g clip-path="url(#stoqMJ7TLzm9a)">
    <path d="M16.167 11.999c0 2.3-1.866 4.166-4.166 4.166-2.3 0-3.705-2.316-3.705-2.316m0 0h1.884m-1.884 0v2.083m-.462-3.933c0-2.3 1.85-4.167 4.167-4.167 2.779 0 4.166 2.317 4.166 2.317m0 0V8.065m0 2.084h-1.85" stroke="#292D32" stroke-width="1.5" stroke-linecap="round" stroke-linejoin="round"/>
  </g>
  <defs>
    <clipPath id="stoqMJ7TLzm9a">
      <path fill="#fff" transform="translate(7 7)" d="M0 0h10v10H0z"/>
    </clipPath>
  </defs>
</svg>
